<?xml version="1.0" encoding="UTF-8" standalone="no"?>
<!-- Created with Inkscape (http://www.inkscape.org/) -->

<svg
   xmlns:dc="http://purl.org/dc/elements/1.1/"
   xmlns:cc="http://creativecommons.org/ns#"
   xmlns:rdf="http://www.w3.org/1999/02/22-rdf-syntax-ns#"
   xmlns:svg="http://www.w3.org/2000/svg"
   xmlns="http://www.w3.org/2000/svg"
   xmlns:sodipodi="http://sodipodi.sourceforge.net/DTD/sodipodi-0.dtd"
   xmlns:inkscape="http://www.inkscape.org/namespaces/inkscape"
   width="547.19098"
   height="128.662"
   viewBox="0 0 144.77761 34.041822"
   version="1.1"
   id="svg130"
   inkscape:version="0.92.0 r15299"
   sodipodi:docname="marca.svg"
   inkscape:export-filename="C:\Users\lucia\Desktop\marca.png"
   inkscape:export-xdpi="96"
   inkscape:export-ydpi="96">
  <defs
     id="defs124" />
  <sodipodi:namedview
     id="base"
     pagecolor="#ffffff"
     bordercolor="#666666"
     borderopacity="1.0"
     inkscape:pageopacity="0.0"
     inkscape:pageshadow="2"
     inkscape:zoom="1.4"
     inkscape:cx="270.8549"
     inkscape:cy="61.35107"
     inkscape:document-units="mm"
     inkscape:current-layer="layer1"
     showgrid="false"
     inkscape:window-width="1366"
     inkscape:window-height="705"
     inkscape:window-x="-8"
     inkscape:window-y="-8"
     inkscape:window-maximized="1"
     inkscape:measure-start="-110,450"
     inkscape:measure-end="0,0"
     units="px" />
  <metadata
     id="metadata127">
    <rdf:RDF>
      <cc:Work
         rdf:about="">
        <dc:format>image/svg+xml</dc:format>
        <dc:type
           rdf:resource="http://purl.org/dc/dcmitype/StillImage" />
        <dc:title></dc:title>
      </cc:Work>
    </rdf:RDF>
  </metadata>
  <g
     inkscape:label="Capa 1"
     inkscape:groupmode="layer"
     id="layer1"
     style="display:inline"
     transform="translate(0,-262.95817)">
    <path
       d="m 11.430734,276.70031 c 0.74699,1.1451 1.6693,2.66068 1.97374,3.94869 0.987773,-3.55417 0.01703,-5.3838 -0.717561,-7.99343 -0.761391,-2.26916 -2.670876,-5.08777 -3.5301553,-7.29269 -0.563842,-0.50621 -1.175123,-0.91272 -1.83563,-1.16131 -3.2935782,-1.23637 -4.8271682,1.61826 -4.6680542,4.4831 0.888097,0.53683 1.750967,1.37147 2.423508,1.82842 2.6228422,2.07342 4.6650392,3.17469 6.3541525,6.18722"
       style="fill:#80cc28;fill-opacity:1;fill-rule:nonzero;stroke:none;stroke-width:0.60046875"
       id="path38"
       inkscape:connector-curvature="0" />
    <path
       d="m 15.641633,277.83555 c 0.223982,-1.95451 1.055637,-4.45905 2.269773,-6.56009 -2.085416,-4.14864 -6.043722,-8.36694 -9.1025103,-8.32431 -0.197546,0.62689 -0.02162,1.46275 0.348287,2.41149 0.8586673,2.20492 2.7687473,5.02412 3.5301563,7.29269 0.733169,2.61024 1.70472,4.43926 0.716948,7.99343 -0.303828,-1.28801 -1.226749,-2.80299 -1.97374,-3.94869 -1.6891123,-3.01253 -3.7313103,-4.1138 -6.3535575,-6.18722 -0.672523,-0.45694 -1.535394,-1.291 -2.424086,-1.82842 -0.44255,-0.26781 -0.891092,-0.46175 -1.327038,-0.49598 -2.24275892,-0.0972 -1.07903992,1.69932 -0.68573192,3.14525 1.02138992,3.49173 -0.136339,5.70264 4.06817792,10.69194 1.10966,1.31863 5.9662575,4.41704 9.5444465,2.61985 l 0.915704,-0.40892 c 0.553648,-0.25102 1.083261,-0.6281 1.571428,-1.10367 -0.851467,-1.48796 -1.32222,-3.3314 -1.098257,-5.29735"
       style="fill:#cbbe7d;fill-opacity:1;fill-rule:nonzero;stroke:none;stroke-width:0.60046875"
       id="path42"
       inkscape:connector-curvature="0" />
    <path
       d="m 22.993295,279.41679 c -0.388491,0.99136 -0.853866,2.29378 -0.885083,3.32417 -1.312621,-2.55677 -0.85928,-4.10599 -0.710362,-6.21423 0.226382,-1.85184 1.240571,-4.30535 1.548007,-6.12417 0.350075,-0.47497 0.753595,-0.88089 1.218359,-1.17633 2.319609,-1.46093 3.941471,0.47618 4.269929,2.6889 -0.594465,0.54942 -1.121065,1.32224 -1.56302,1.7774 -1.675308,1.99474 -3.062379,3.15845 -3.87783,5.72426"
       style="fill:#80cc28;fill-opacity:1;fill-rule:nonzero;stroke:none;stroke-width:0.60046875"
       id="path46"
       inkscape:connector-curvature="0" />
    <path
       d="m 16.828519,278.15837 c 0.438959,-3.83698 3.231128,-9.1199 6.003501,-9.65191 0.248594,0.44853 0.244985,1.11326 0.114042,1.89627 -0.308049,1.81882 -1.322239,4.27174 -1.54862,6.12357 -0.148935,2.10825 -0.602259,3.65805 0.710361,6.21486 0.03115,-1.03042 0.497188,-2.33282 0.885697,-3.3242 0.815432,-2.56641 2.202504,-3.7295 3.877812,-5.72486 0.441359,-0.45456 0.968573,-1.22736 1.562424,-1.77678 0.29724,-0.27502 0.607672,-0.49479 0.934939,-0.58787 1.698116,-0.42753 1.092247,1.12708 1.018393,2.29259 -0.228782,2.82699 1.002171,4.33298 -1.421319,8.80406 -0.640693,1.18233 -3.859208,4.31197 -6.874167,3.50315 l -0.76379,-0.16817 c -2.428904,-0.54883 -4.929244,-3.83641 -4.499323,-7.60074"
       style="fill:#cbbe7d;fill-opacity:1;fill-rule:nonzero;stroke:none;stroke-width:0.60046875"
       id="path50"
       inkscape:connector-curvature="0" />
    <path
       d="M 51.671264,285.82786 H 51.137445 L 40.248551,275.11671 v 4.8758 c 0,0.82203 0.0034,1.5396 0.01362,2.15088 0.01023,0.61128 0.0252,1.13969 0.04749,1.58224 0.02349,0.44193 0.05532,0.81422 0.096,1.11507 0.04086,0.30263 0.09361,0.54822 0.157957,0.74037 v 0.0554 h -2.054812 v -0.0554 c 0.06434,-0.19215 0.118978,-0.43774 0.163914,-0.74037 0.0463,-0.30085 0.08289,-0.67314 0.110466,-1.11507 0.02706,-0.44255 0.04442,-0.97096 0.05413,-1.58224 0.0085,-0.61128 0.01362,-1.32885 0.01362,-2.15088 v -3.4509 c 0,-0.82203 -0.0051,-1.53598 -0.01362,-2.14366 -0.01023,-0.60767 -0.02706,-1.13249 -0.05413,-1.57503 -0.02757,-0.44315 -0.06434,-0.81543 -0.110466,-1.11686 -0.04511,-0.30145 -0.09975,-0.54705 -0.163914,-0.73918 v -0.0554 h 0.849064 l 10.902107,10.76521 v -5.13522 c 0,-0.82203 -0.0034,-1.53598 -0.01364,-2.14366 -0.008,-0.60767 -0.02523,-1.13249 -0.04864,-1.57503 -0.02216,-0.44315 -0.05273,-0.81543 -0.0883,-1.11686 -0.03728,-0.30145 -0.08717,-0.54705 -0.151323,-0.73918 v -0.0554 h 2.041001 v 0.0554 c -0.06364,0.19213 -0.115921,0.43773 -0.157278,0.73918 -0.04137,0.30143 -0.07558,0.67371 -0.10217,1.11686 -0.0283,0.44254 -0.04682,0.96736 -0.05512,1.57503 -0.008,0.60768 -0.01364,1.32163 -0.01364,2.14366 z"
       style="fill:#80cc28;fill-opacity:1;fill-rule:nonzero;stroke:none;stroke-width:0.60046875"
       id="path54"
       inkscape:connector-curvature="0" />
    <path
       d="m 58.34121,270.90526 c 0.93974,-0.005 1.81282,-0.0136 2.61505,-0.0276 0.80402,-0.0136 1.49577,-0.0294 2.07642,-0.048 0.57945,-0.0174 0.96015,-0.0451 1.14269,-0.0822 l -0.53441,1.47956 c -0.2462,-0.0636 -0.52422,-0.12306 -0.83405,-0.17834 -0.27502,-0.0451 -0.60527,-0.0889 -0.99378,-0.12971 -0.38851,-0.0408 -0.83706,-0.0618 -1.34866,-0.0618 -0.18314,0 -0.3933,0.007 -0.63109,0.0209 -0.23718,0.0136 -0.46536,0.0294 -0.68393,0.0475 -0.2558,0.0185 -0.51581,0.0366 -0.78121,0.0547 v 5.41081 c 0.73978,-0.0102 1.4063,-0.0276 1.99956,-0.0554 0.59326,-0.0276 1.10066,-0.0636 1.52098,-0.11047 0.49299,-0.0353 0.92593,-0.0859 1.30062,-0.14944 l -0.32906,1.63026 c -0.50139,-0.0649 -1.00878,-0.1188 -1.51918,-0.16459 -0.43895,-0.0462 -0.92352,-0.0846 -1.45194,-0.1171 -0.53021,-0.0324 -1.03641,-0.0475 -1.52098,-0.0475 v 6.21725 c 0.84967,0 1.63027,-0.0331 2.34243,-0.10262 0.71216,-0.0673 1.33304,-0.14299 1.86265,-0.22518 0.62089,-0.10023 1.18232,-0.21497 1.68492,-0.34228 l -0.31585,1.7942 c -0.13571,-0.008 -0.35788,-0.0211 -0.66412,-0.0342 -0.30623,-0.0136 -0.62509,-0.0235 -0.95835,-0.0283 -0.33386,-0.003 -0.6461,-0.008 -0.93793,-0.0119 -0.29182,-0.005 -0.49358,-0.007 -0.60227,-0.007 h -5.19105 v -0.0554 c 0.06307,-0.19214 0.120104,-0.43713 0.170529,-0.73978 0.04989,-0.30083 0.09126,-0.67312 0.123104,-1.11507 0.03239,-0.44314 0.05762,-0.97155 0.07512,-1.58224 0.01864,-0.61187 0.02819,-1.32882 0.02819,-2.15088 v -3.45093 c 0,-0.82265 -0.0091,-1.5366 -0.02819,-2.14427 -0.01739,-0.60767 -0.04262,-1.13189 -0.07512,-1.57504 -0.03182,-0.44314 -0.0733,-0.81484 -0.123104,-1.11687 -0.05046,-0.30084 -0.107511,-0.54702 -0.170529,-0.73857 v -0.0553 c 0.894095,0 1.811613,-0.001 2.75254,-0.007"
       style="fill:#80cc28;fill-opacity:1;fill-rule:nonzero;stroke:none;stroke-width:0.60046875"
       id="path58"
       inkscape:connector-curvature="0" />
    <path
       d="m 77.242478,272.22672 3.82079,9.71076 3.21912,-8.05348 c 0.081,-0.17293 0.16391,-0.36687 0.24558,-0.58185 0.0828,-0.21436 0.15795,-0.43354 0.22698,-0.6581 0.0684,-0.22399 0.12374,-0.43776 0.16459,-0.64312 0.0397,-0.20595 0.0612,-0.39029 0.0612,-0.55482 0,-0.11881 -0.008,-0.22097 -0.0283,-0.30865 -0.0174,-0.0865 -0.036,-0.14298 -0.0534,-0.17053 v -0.0551 h 2.561 v 0.0551 c -0.18312,0.18255 -0.39749,0.48158 -0.64547,0.89651 -0.245,0.41611 -0.53683,1.02499 -0.87489,1.82902 l -5.1088,12.13547 h -0.7542 l -3.69707,-9.05327 -3.76734,9.05327 h -0.7806 L 67.12097,274.3908 c -0.17354,-0.41972 -0.35847,-0.82384 -0.55483,-1.21175 -0.19635,-0.3879 -0.3837,-0.73616 -0.56265,-1.04121 -0.17713,-0.30564 -0.33264,-0.56143 -0.46475,-0.76679 -0.13159,-0.20596 -0.22098,-0.34046 -0.2672,-0.40412 v -0.0551 h 3.752333 v 0.0551 c -0.0174,0.0463 -0.0324,0.1183 -0.0408,0.21978 -0.008,0.0998 -0.0119,0.18614 -0.0119,0.2594 0,0.29242 0.0444,0.61848 0.13633,0.97937 0.0913,0.36026 0.24138,0.81063 0.45215,1.34865 l 3.287585,8.21861 3.86101,-9.76602 z"
       style="fill:#80cc28;fill-opacity:1;fill-rule:nonzero;stroke:none;stroke-width:0.60046875"
       id="path62"
       inkscape:connector-curvature="0" />
    <path
       d="m 92.197348,278.96558 c 0.18134,0.0271 0.36267,0.0527 0.54102,0.0743 0.17833,0.0235 0.35428,0.0349 0.52661,0.0349 0.52059,0 0.99678,-0.0798 1.43211,-0.23839 0.43293,-0.16033 0.80282,-0.40051 1.10907,-0.72055 0.305648,-0.31885 0.543438,-0.72538 0.712158,-1.21956 0.16869,-0.49178 0.2528,-1.06702 0.2528,-1.72514 0,-0.529 -0.0582,-1.00878 -0.17775,-1.43752 -0.11949,-0.42933 -0.29483,-0.79742 -0.5266,-1.10306 -0.234198,-0.30503 -0.524218,-0.54282 -0.871288,-0.71156 -0.34586,-0.16935 -0.74818,-0.25339 -1.20393,-0.25339 -0.29304,0 -0.54942,0.0102 -0.77341,0.0342 -0.22457,0.0222 -0.41372,0.0475 -0.56923,0.0751 -0.17415,0.0373 -0.32307,0.0732 -0.45156,0.10922 z m 0,0.94574 c 0,0.82085 0.008,1.54202 0.027,2.16349 0.0181,0.62029 0.0438,1.1565 0.075,1.60927 0.0324,0.45215 0.0715,0.83344 0.11711,1.14267 0.0456,0.31165 0.10023,0.56205 0.16459,0.7542 v 0.0551 h -3.16447 v -0.0551 c 0.0643,-0.19215 0.12188,-0.43714 0.17113,-0.73977 0.051,-0.30083 0.0919,-0.67314 0.12375,-1.11567 0.0325,-0.44256 0.0565,-0.97095 0.075,-1.58223 0.0185,-0.61129 0.0271,-1.32826 0.0271,-2.15089 v -3.45091 c 0,-0.82202 -0.008,-1.53598 -0.0271,-2.14365 -0.0185,-0.60767 -0.0427,-1.13248 -0.075,-1.57503 -0.0318,-0.44315 -0.0727,-0.81483 -0.12375,-1.11688 -0.0492,-0.30084 -0.10694,-0.54702 -0.17113,-0.73916 v -0.0553 c 0.20057,0.0102 0.40231,0.0185 0.60347,0.0276 0.17234,0.0102 0.35789,0.017 0.55423,0.0205 0.19576,0.005 0.38071,0.007 0.55483,0.007 0.29124,0 0.72297,-0.0276 1.29403,-0.0822 0.57045,-0.0547 1.24356,-0.0817 2.01996,-0.0817 0.71217,0 1.37448,0.0936 1.985758,0.28041 0.61187,0.18796 1.13969,0.46418 1.58343,0.82865 0.44134,0.36449 0.78902,0.81063 1.04001,1.33545 0.25099,0.52541 0.37589,1.12887 0.37589,1.8146 0,0.80344 -0.15557,1.51318 -0.46536,2.12926 -0.30983,0.61669 -0.73316,1.1331 -1.26639,1.54862 -0.53441,0.41492 -1.16251,0.72716 -1.883658,0.93793 -0.72177,0.21016 -1.48856,0.31464 -2.301,0.31464 -0.42873,0 -0.86648,-0.0271 -1.31443,-0.081"
       style="fill:#62972b;fill-opacity:1;fill-rule:nonzero;stroke:none;stroke-width:0.60046875"
       id="path66"
       inkscape:connector-curvature="0" />
    <path
       d="m 109.16639,284.91016 c 0.69476,0 1.33365,-0.13684 1.9179,-0.41191 0.58546,-0.27382 1.08866,-0.66592 1.5138,-1.17693 0.42511,-0.51099 0.75298,-1.13548 0.98535,-1.87045 0.2336,-0.73497 0.34949,-1.56303 0.34949,-2.48535 0,-1.0496 -0.11115,-2.02237 -0.33567,-2.91766 -0.22277,-0.89531 -0.56144,-1.66811 -1.01299,-2.3214 -0.45215,-0.65212 -1.0166,-1.16432 -1.69152,-1.53421 -0.67553,-0.36929 -1.46574,-0.55483 -2.36945,-0.55483 -0.69475,0 -1.33423,0.13327 -1.91789,0.3975 -0.58366,0.26542 -1.08865,0.64911 -1.51318,1.1505 -0.42395,0.5026 -0.756,1.11809 -0.99259,1.84886 -0.23779,0.73136 -0.35547,1.56179 -0.35547,2.49313 0,1.0406 0.11524,2.01096 0.34767,2.91107 0.23358,0.8995 0.57644,1.6807 1.02859,2.34123 0.45156,0.66291 1.01599,1.18351 1.69153,1.56181 0.67493,0.37951 1.45915,0.56864 2.35443,0.56864 m -8.16217,-6.68442 c 0,-1.07663 0.20296,-2.077 0.60888,-2.99932 0.40652,-0.92291 0.96136,-1.72395 1.66451,-2.40367 0.70254,-0.67975 1.5336,-1.21176 2.49314,-1.59545 0.95835,-0.38371 1.98576,-0.57526 3.08161,-0.57526 1.07723,0 2.09263,0.18015 3.04797,0.54042 0.95355,0.36088 1.78459,0.87489 2.49314,1.54142 0.70617,0.66652 1.26581,1.47474 1.67652,2.42408 0.41132,0.94934 0.61548,2.01336 0.61548,3.19148 0,0.97697 -0.17294,1.9197 -0.5206,2.82761 -0.34587,0.90971 -0.85448,1.71254 -1.5186,2.41208 -0.66651,0.69654 -1.48915,1.25558 -2.46492,1.66931 -0.97817,0.41553 -2.09684,0.62388 -3.35662,0.62388 -1.06822,0 -2.07703,-0.17773 -3.02755,-0.53441 -0.94995,-0.35608 -1.7798,-0.86527 -2.49196,-1.527 -0.71275,-0.66111 -1.27359,-1.46575 -1.68552,-2.41087 -0.40951,-0.94514 -0.61548,-2.00617 -0.61548,-3.1843"
       style="fill:#62972b;fill-opacity:1;fill-rule:nonzero;stroke:none;stroke-width:0.60046875"
       id="path70"
       inkscape:connector-curvature="0" />
    <path
       d="m 122.26095,278.48617 c 0.18314,0.0271 0.36748,0.048 0.55482,0.0618 0.18735,0.0136 0.3687,0.0205 0.54103,0.0205 1.1409,0 2.00617,-0.30625 2.59462,-0.91812 0.58967,-0.61187 0.88449,-1.52878 0.88449,-2.75253 0,-1.00459 -0.23538,-1.799 -0.70554,-2.38326 -0.47077,-0.58365 -1.16251,-0.87669 -2.07522,-0.87669 -0.29182,0 -0.55003,0.0119 -0.77341,0.0342 -0.22398,0.0235 -0.41371,0.0475 -0.56864,0.075 -0.17414,0.0366 -0.32366,0.0732 -0.45215,0.1099 z m 2.09563,0.89049 c -0.18375,0.0271 -0.36268,0.0427 -0.54223,0.0475 -0.17714,0.005 -0.35786,0.007 -0.54042,0.007 -0.14537,0 -0.30563,-0.003 -0.47978,-0.0119 -0.17232,-0.0102 -0.35006,-0.0228 -0.5332,-0.0414 v 0.67072 c 0,0.81305 0.008,1.52341 0.0283,2.12987 0.0174,0.60707 0.042,1.13008 0.075,1.56784 0.0311,0.43894 0.0708,0.80701 0.11472,1.10304 0.0468,0.29723 0.10217,0.54043 0.16629,0.73258 v 0.0554 h -3.16387 v -0.0554 c 0.063,-0.19215 0.12016,-0.43715 0.16987,-0.73979 0.0503,-0.30083 0.0919,-0.67312 0.12374,-1.11505 0.0324,-0.44315 0.0577,-0.97157 0.0743,-1.58224 0.0185,-0.61188 0.0288,-1.32885 0.0288,-2.15088 v -3.45089 c 0,-0.82264 -0.0102,-1.53659 -0.0288,-2.14426 -0.0171,-0.60768 -0.0421,-1.13189 -0.0743,-1.57504 -0.0318,-0.44314 -0.0732,-0.81484 -0.12374,-1.11687 -0.0499,-0.30084 -0.10694,-0.54703 -0.16987,-0.73857 v -0.0554 c 0.14587,0.008 0.30024,0.0185 0.46476,0.0276 0.13753,0.008 0.28883,0.0153 0.45936,0.0198 0.16937,0.005 0.33928,0.008 0.51281,0.008 0.29242,0 0.72656,-0.0276 1.30061,-0.0822 0.57526,-0.0554 1.25137,-0.0817 2.02779,-0.0817 0.78541,0 1.50057,0.0948 2.14366,0.28703 0.64311,0.19155 1.19554,0.46536 1.65789,0.82144 0.45997,0.35667 0.81665,0.78901 1.06764,1.30122 0.2504,0.5116 0.37711,1.08203 0.37711,1.71253 0,0.49299 -0.068,0.94273 -0.20598,1.34866 -0.13633,0.40591 -0.32905,0.77158 -0.57524,1.09524 -0.2462,0.32425 -0.53803,0.61008 -0.87668,0.85627 -0.33746,0.24679 -0.71216,0.46115 -1.12289,0.6449 l 2.86184,4.03995 c 0.24679,0.32787 0.496,0.6431 0.74699,0.94395 0.25219,0.30202 0.49178,0.57164 0.71937,0.80882 0.22757,0.23839 0.44314,0.43714 0.64249,0.59506 0.20176,0.16085 0.37109,0.26902 0.5086,0.32245 v 0.0553 h -3.5884 c 0,-0.0822 -0.0577,-0.22697 -0.17175,-0.43172 -0.11472,-0.20537 -0.24558,-0.42034 -0.3975,-0.64311 -0.15131,-0.22399 -0.30082,-0.44134 -0.45155,-0.65151 -0.15183,-0.20955 -0.26301,-0.36508 -0.33566,-0.46597 z"
       style="fill:#62972b;fill-opacity:1;fill-rule:nonzero;stroke:none;stroke-width:0.60046875"
       id="path74"
       inkscape:connector-curvature="0" />
    <path
       d="m 136.83341,271.92565 c -0.83104,0 -1.58583,0.0366 -2.26675,0.10922 -0.68034,0.0739 -1.2664,0.15131 -1.76058,0.23298 -0.56504,0.10023 -1.07603,0.21017 -1.533,0.32905 l 0.27322,-1.76716 c 0.13685,0.0185 0.36148,0.0323 0.67192,0.0414 0.31044,0.008 0.6371,0.0153 0.97996,0.0205 0.34168,0.005 0.66472,0.008 0.97218,0.0136 0.30622,0.003 0.51758,0.007 0.63648,0.007 h 6.47786 c 0.11115,0 0.31345,-10e-4 0.60886,-0.007 0.29784,-0.005 0.6149,-0.008 0.95296,-0.0136 0.33745,-0.005 0.66171,-0.0119 0.97275,-0.0205 0.30925,-0.008 0.53323,-0.0229 0.67133,-0.0414 l 0.2738,1.76716 c -0.43893,-0.1188 -0.94093,-0.22878 -1.50776,-0.32905 -0.48278,-0.0817 -1.06524,-0.15915 -1.74616,-0.23298 -0.68035,-0.0727 -1.44474,-0.10922 -2.2932,-0.10922 v 8.06728 c 0,0.82204 0.008,1.53901 0.0271,2.15089 0.0174,0.61067 0.0438,1.13909 0.0751,1.58162 0.0318,0.44255 0.0708,0.81484 0.11643,1.11567 0.0463,0.30263 0.10024,0.54764 0.16459,0.73979 v 0.0554 h -3.16386 v -0.0554 c 0.0642,-0.19215 0.11949,-0.43716 0.1646,-0.73979 0.0444,-0.30083 0.0872,-0.67312 0.12305,-1.11567 0.0361,-0.44253 0.0636,-0.97095 0.0822,-1.58162 0.0181,-0.61188 0.0271,-1.32885 0.0271,-2.15089 z"
       style="fill:#62972b;fill-opacity:1;fill-rule:nonzero;stroke:none;stroke-width:0.60046875"
       id="path78"
       inkscape:connector-curvature="0" />
    <path
       d="m 90.381818,291.69126 c 0.32966,-10e-4 0.6353,-0.005 0.91752,-0.0102 0.28162,-0.003 0.52301,-0.0102 0.72598,-0.0171 0.20414,-0.007 0.33745,-0.017 0.4017,-0.0294 l -0.18675,0.5188 c -0.0865,-0.0222 -0.18493,-0.0432 -0.29302,-0.0625 -0.096,-0.0171 -0.21317,-0.0311 -0.34707,-0.0456 -0.13754,-0.0153 -0.29483,-0.0223 -0.47377,-0.0223 -0.0643,0 -0.13805,0.003 -0.22097,0.008 -0.0841,0.005 -0.1634,0.0102 -0.2408,0.0174 -0.0896,0.005 -0.18073,0.0119 -0.27201,0.0181 v 1.8969 c 0.25761,-0.003 0.49238,-0.0102 0.70076,-0.0198 0.20714,-0.0102 0.38429,-0.0223 0.53201,-0.0384 0.17294,-0.0119 0.32604,-0.0294 0.45635,-0.0516 l -0.11591,0.56984 c -0.17592,-0.0223 -0.35307,-0.0414 -0.53322,-0.0577 -0.1537,-0.0153 -0.32245,-0.03 -0.508,-0.0401 -0.18554,-0.0102 -0.36328,-0.017 -0.53201,-0.017 v 2.17911 c 0.29664,0 0.57105,-0.0119 0.82024,-0.0366 0.24979,-0.0235 0.46717,-0.0492 0.65272,-0.0786 0.21737,-0.0349 0.41372,-0.0751 0.58964,-0.11949 l -0.10921,0.6281 c -0.0492,-0.002 -0.12613,-0.007 -0.23417,-0.0119 -0.10695,-0.006 -0.21798,-0.008 -0.33567,-0.0102 -0.11591,-10e-4 -0.22578,-0.003 -0.32786,-0.003 -0.10331,-10e-4 -0.17353,-10e-4 -0.21197,-10e-4 h -1.81941 v -0.0205 c 0.0222,-0.0667 0.0427,-0.15318 0.0613,-0.2594 0.0153,-0.10501 0.0307,-0.23598 0.0414,-0.3903 0.0119,-0.15558 0.0216,-0.33928 0.0276,-0.55423 0.007,-0.21558 0.0102,-0.46597 0.0102,-0.7542 v -1.20933 c 0,-0.28762 -0.003,-0.53864 -0.0102,-0.75119 -0.007,-0.21257 -0.017,-0.39692 -0.0276,-0.55304 -0.0102,-0.15438 -0.0252,-0.28461 -0.0414,-0.3897 -0.0185,-0.10626 -0.039,-0.19334 -0.0613,-0.25999 v -0.0192 c 0.31405,0 0.63529,0 0.96496,-10e-4"
       style="fill:#62972b;fill-opacity:1;fill-rule:nonzero;stroke:none;stroke-width:0.60046875"
       id="path82"
       inkscape:connector-curvature="0" />
    <path
       d="m 93.189798,296.83452 c 0.0421,-0.0444 0.0841,-0.12612 0.12731,-0.245 0.0432,-0.11762 0.0767,-0.24498 0.10331,-0.38428 0.0377,-0.2228 0.081,-0.47859 0.12782,-0.76441 0.0451,-0.28762 0.0919,-0.58185 0.13873,-0.88688 0.0468,-0.30385 0.0924,-0.60708 0.13753,-0.90853 0.0432,-0.30263 0.0852,-0.58365 0.12305,-0.84244 0.039,-0.2594 0.0715,-0.487 0.0967,-0.68214 0.0252,-0.19456 0.0427,-0.33687 0.0523,-0.42754 h 0.57224 l 2.289598,4.1006 2.34662,-4.1006 h 0.46597 l 0.576434,4.00812 c 0.0283,0.18315 0.0565,0.33809 0.0834,0.46597 0.027,0.12852 0.0534,0.23659 0.0786,0.32427 0.0252,0.0883 0.0516,0.15914 0.0782,0.21317 0.0252,0.0553 0.0463,0.0978 0.0673,0.12969 v 0.0198 h -1.182324 v -0.0198 c 0.0102,-0.0247 0.0222,-0.068 0.0366,-0.12969 0.0136,-0.0594 0.0216,-0.13328 0.0216,-0.21558 0,-0.0547 -0.003,-0.13277 -0.0119,-0.23538 -0.008,-0.10262 -0.0205,-0.20356 -0.036,-0.30204 l -0.41372,-2.9429 -2.18331,3.83579 -0.34166,-0.048 -2.145478,-3.81658 c -0.0798,0.53802 -0.15064,1.03521 -0.21017,1.49276 -0.0259,0.19517 -0.0523,0.39091 -0.0769,0.58546 -0.0259,0.19515 -0.048,0.37951 -0.068,0.54942 -0.0192,0.17175 -0.0353,0.32307 -0.048,0.45396 -0.0119,0.13208 -0.0181,0.22938 -0.0181,0.29364 0,0.0793 4.6e-4,0.14893 0.003,0.20776 0.003,0.0589 0.008,0.11114 0.0136,0.15727 0.007,0.0503 0.0119,0.096 0.0198,0.13396 h -0.82624 z"
       style="fill:#62972b;fill-opacity:1;fill-rule:nonzero;stroke:none;stroke-width:0.60046875"
       id="path86"
       inkscape:connector-curvature="0" />
    <path
       d="m 102.6504,294.51593 c 0.0649,0.0102 0.12732,0.0185 0.19035,0.0264 0.0625,0.008 0.12374,0.0119 0.18496,0.0119 0.18194,0 0.34945,-0.0264 0.50078,-0.0822 0.15318,-0.0565 0.28163,-0.14043 0.38971,-0.25342 0.10694,-0.11228 0.18976,-0.25339 0.2492,-0.42692 0.0601,-0.17233 0.0883,-0.37409 0.0883,-0.60527 0,-0.18433 -0.0205,-0.35307 -0.0613,-0.5032 -0.0414,-0.15064 -0.10387,-0.27921 -0.18614,-0.3867 -0.0805,-0.10762 -0.18255,-0.19035 -0.30503,-0.2492 -0.12069,-0.0594 -0.2618,-0.0889 -0.42213,-0.0889 -0.10262,0 -0.19155,0.003 -0.27082,0.0119 -0.0781,0.008 -0.14536,0.0171 -0.19815,0.0264 -0.0613,0.0119 -0.11403,0.0252 -0.15965,0.0385 z m 0,0.33265 c 0,0.28643 0.003,0.53923 0.0102,0.75721 0.008,0.21797 0.0154,0.4059 0.0271,0.56443 0.0102,0.15796 0.0247,0.29183 0.0401,0.4011 0.0153,0.10808 0.0361,0.19637 0.0571,0.26302 v 0.0205 h -1.10786 v -0.0205 c 0.0222,-0.0667 0.0427,-0.1537 0.0601,-0.2594 0.0174,-0.10501 0.0325,-0.23598 0.0427,-0.39032 0.0119,-0.15557 0.0211,-0.33925 0.0264,-0.55482 0.007,-0.21497 0.0102,-0.46535 0.0102,-0.75359 v -1.20934 c 0,-0.28824 -0.003,-0.53923 -0.0102,-0.7512 -0.006,-0.21316 -0.0136,-0.39689 -0.0264,-0.55303 -0.0102,-0.15438 -0.0252,-0.28523 -0.0427,-0.3897 -0.0174,-0.10615 -0.0378,-0.19334 -0.0601,-0.26 v -0.0192 c 0.0704,0.003 0.14111,0.007 0.21076,0.008 0.0618,0.003 0.12545,0.005 0.19516,0.007 0.068,0.001 0.13277,0.003 0.19394,0.003 0.10263,0 0.25461,-0.0102 0.45396,-0.0283 0.19997,-0.0192 0.43535,-0.03 0.70796,-0.03 0.24919,0 0.48096,0.0331 0.69713,0.0991 0.21257,0.0656 0.39752,0.16272 0.55364,0.29061 0.15438,0.12783 0.27562,0.28283 0.36328,0.46838 0.0889,0.18314 0.13396,0.39511 0.13396,0.63529 0,0.28161 -0.0547,0.53021 -0.1646,0.74638 -0.10808,0.21617 -0.25639,0.39692 -0.44315,0.54164 -0.18794,0.14586 -0.40711,0.25638 -0.6605,0.32965 -0.2522,0.0743 -0.52121,0.11046 -0.80643,0.11046 -0.15013,0 -0.30385,-0.0102 -0.46117,-0.0276"
       style="fill:#62972b;fill-opacity:1;fill-rule:nonzero;stroke:none;stroke-width:0.60046875"
       id="path90"
       inkscape:connector-curvature="0" />
    <path
       d="m 106.98592,294.34876 c 0.063,0.008 0.12851,0.017 0.19334,0.0216 0.0667,0.003 0.12971,0.007 0.18975,0.007 0.40112,0 0.70376,-0.10763 0.91093,-0.32245 0.20655,-0.21437 0.30803,-0.53562 0.30803,-0.96435 0,-0.35248 -0.081,-0.6311 -0.2456,-0.83586 -0.16579,-0.20475 -0.40771,-0.30622 -0.72775,-0.30622 -0.10331,0 -0.19275,0.003 -0.27143,0.0119 -0.0781,0.007 -0.14536,0.017 -0.19875,0.0259 -0.0613,0.0136 -0.11353,0.0264 -0.15847,0.0384 z m 0.73497,0.31163 c -0.0643,0.0102 -0.12782,0.0154 -0.19034,0.0171 -0.063,0.001 -0.12613,0.003 -0.18976,0.003 -0.0516,0 -0.10694,-0.001 -0.16868,-0.005 -0.0606,-0.003 -0.12305,-0.008 -0.18614,-0.0153 v 0.23539 c 0,0.28403 0.003,0.53322 0.0102,0.74578 0.007,0.21377 0.0153,0.39632 0.0264,0.55004 0.0119,0.15319 0.0247,0.28221 0.0409,0.38609 0.0153,0.10455 0.0347,0.18976 0.0577,0.257 v 0.0198 h -1.10966 v -0.0198 c 0.0228,-0.0673 0.0432,-0.1537 0.0606,-0.25999 0.0174,-0.10501 0.0318,-0.23598 0.0427,-0.3897 0.0119,-0.15609 0.0198,-0.33988 0.0276,-0.55485 0.005,-0.21556 0.008,-0.46597 0.008,-0.75418 v -1.20934 c 0,-0.28762 -0.003,-0.53863 -0.008,-0.7512 -0.008,-0.21255 -0.0171,-0.39689 -0.0276,-0.55303 -0.0102,-0.1537 -0.0252,-0.28461 -0.0427,-0.3897 -0.0174,-0.10627 -0.0377,-0.19275 -0.0606,-0.26 v -0.0192 c 0.0516,0.003 0.10501,0.007 0.16323,0.0102 0.048,0.003 0.10149,0.006 0.16102,0.007 0.0594,0.002 0.11881,0.003 0.18014,0.003 0.10217,0 0.25401,-0.0102 0.45635,-0.0283 0.20056,-0.0192 0.43775,-0.0294 0.71037,-0.0294 0.275,0 0.5254,0.0337 0.75117,0.10149 0.22517,0.066 0.41913,0.16272 0.58066,0.28762 0.16153,0.12493 0.28703,0.27741 0.3735,0.45576 0.0896,0.18073 0.13208,0.38008 0.13208,0.60045 0,0.17234 -0.0228,0.32968 -0.0708,0.47318 -0.048,0.14179 -0.11593,0.26902 -0.20238,0.38311 -0.0852,0.11404 -0.18854,0.21436 -0.30743,0.30083 -0.11881,0.0852 -0.24918,0.16085 -0.39271,0.22577 l 1.00279,1.41531 c 0.0858,0.11472 0.17293,0.22576 0.2618,0.33085 0.0883,0.10626 0.17113,0.20057 0.2528,0.28343 0.0793,0.0834 0.15489,0.15319 0.22517,0.20897 0.0697,0.0565 0.12918,0.0943 0.17654,0.11285 v 0.0198 h -1.25677 c 0,-0.0294 -0.0205,-0.0798 -0.0594,-0.15064 -0.0408,-0.0732 -0.0872,-0.14825 -0.13992,-0.22698 -0.0534,-0.0781 -0.10615,-0.15438 -0.15914,-0.22758 -0.0523,-0.0744 -0.0913,-0.12783 -0.11711,-0.1634 z"
       style="fill:#62972b;fill-opacity:1;fill-rule:nonzero;stroke:none;stroke-width:0.60046875"
       id="path94"
       inkscape:connector-curvature="0" />
    <path
       d="m 111.88088,291.69126 c 0.32965,-10e-4 0.63589,-0.005 0.91752,-0.0102 0.28041,-0.003 0.52361,-0.0102 0.72717,-0.0171 0.20234,-0.007 0.33565,-0.017 0.4005,-0.0294 l -0.18673,0.5188 c -0.0876,-0.0222 -0.18496,-0.0432 -0.29425,-0.0625 -0.0948,-0.0171 -0.21194,-0.0311 -0.34706,-0.0456 -0.13633,-0.0153 -0.29363,-0.0223 -0.47257,-0.0223 -0.0643,0 -0.13753,0.003 -0.22097,0.008 -0.0829,0.005 -0.1634,0.0102 -0.23898,0.0174 -0.0907,0.005 -0.18134,0.0119 -0.27442,0.0181 v 1.8969 c 0.2582,-0.003 0.49178,-0.0102 0.70014,-0.0198 0.20837,-0.0102 0.38551,-0.0223 0.53322,-0.0384 0.17293,-0.0119 0.32487,-0.0294 0.45576,-0.0516 l -0.11523,0.56984 c -0.17594,-0.0223 -0.35429,-0.0414 -0.53203,-0.0577 -0.15369,-0.0153 -0.32303,-0.03 -0.5092,-0.0401 -0.18554,-0.0102 -0.36327,-0.017 -0.5326,-0.017 v 2.17911 c 0.29724,0 0.57104,-0.0119 0.82022,-0.0366 0.24982,-0.0235 0.46778,-0.0492 0.65272,-0.0786 0.21797,-0.0349 0.41433,-0.0751 0.59087,-0.11949 l -0.11001,0.6281 c -0.048,-0.002 -0.12545,-0.007 -0.2342,-0.0119 -0.10694,-0.006 -0.21736,-0.008 -0.33566,-0.0102 -0.11642,-10e-4 -0.22637,-0.003 -0.32845,-0.003 -0.10263,-10e-4 -0.17234,-10e-4 -0.21137,-10e-4 h -1.81821 v -0.0205 c 0.0222,-0.0667 0.0414,-0.15318 0.0601,-0.2594 0.0171,-0.10501 0.0311,-0.23598 0.0427,-0.3903 0.0102,-0.15558 0.0198,-0.33928 0.0264,-0.55423 0.007,-0.21558 0.0102,-0.46597 0.0102,-0.7542 v -1.20933 c 0,-0.28762 -0.003,-0.53864 -0.0102,-0.75119 -0.007,-0.21257 -0.0153,-0.39692 -0.0264,-0.55304 -0.0119,-0.15438 -0.0264,-0.28461 -0.0427,-0.3897 -0.0185,-0.10626 -0.0377,-0.19334 -0.0601,-0.25999 v -0.0192 c 0.31284,0 0.6341,0 0.96375,-10e-4"
       style="fill:#62972b;fill-opacity:1;fill-rule:nonzero;stroke:none;stroke-width:0.60046875"
       id="path98"
       inkscape:connector-curvature="0" />
    <path
       d="m 117.36273,292.69692 h -0.0967 c -0.0181,-0.0547 -0.0492,-0.12256 -0.0931,-0.20655 -0.0438,-0.0822 -0.10092,-0.16392 -0.17232,-0.24439 -0.0721,-0.0805 -0.16153,-0.14894 -0.26603,-0.20417 -0.10615,-0.0571 -0.23237,-0.0834 -0.37949,-0.0834 -0.11228,0 -0.21255,0.0174 -0.30023,0.0541 -0.0883,0.0373 -0.16204,0.0876 -0.22278,0.15183 -0.0618,0.0642 -0.10683,0.14042 -0.13991,0.22758 -0.0324,0.0889 -0.0475,0.18313 -0.0475,0.28642 0,0.1663 0.0492,0.32485 0.15064,0.47438 0.10092,0.15132 0.22698,0.29962 0.37711,0.44855 0.15012,0.14943 0.31282,0.29902 0.48877,0.44974 0.17714,0.14945 0.34046,0.30685 0.48998,0.47017 0.15012,0.16341 0.27562,0.33566 0.3765,0.51821 0.10149,0.18195 0.15183,0.37769 0.15183,0.58485 0,0.15489 -0.0283,0.31285 -0.0834,0.47678 -0.0565,0.16153 -0.14707,0.31043 -0.27202,0.44073 -0.12425,0.13158 -0.28463,0.23959 -0.47978,0.32366 -0.19576,0.0852 -0.43234,0.12732 -0.71036,0.12732 -0.1537,0 -0.30023,-0.0119 -0.44014,-0.0385 -0.13803,-0.0252 -0.26661,-0.0558 -0.3831,-0.0931 -0.11711,-0.0373 -0.22097,-0.0769 -0.31283,-0.12018 -0.0913,-0.0432 -0.16579,-0.0834 -0.2276,-0.12256 l 0.0858,-0.90669 h 0.10149 c 0.0318,0.11171 0.0793,0.22396 0.14178,0.33566 0.063,0.11228 0.13924,0.21377 0.23059,0.30444 0.0919,0.0919 0.19876,0.16511 0.32124,0.22097 0.12374,0.0551 0.26481,0.0846 0.42513,0.0846 0.11172,0 0.21798,-0.0198 0.31706,-0.0554 0.0998,-0.0373 0.18374,-0.09 0.257,-0.15608 0.0708,-0.068 0.1285,-0.14945 0.16936,-0.24799 0.0421,-0.0972 0.0625,-0.20717 0.0625,-0.32906 0,-0.14349 -0.0276,-0.27741 -0.0858,-0.40051 -0.0582,-0.12255 -0.13515,-0.24139 -0.23058,-0.35487 -0.0955,-0.11404 -0.20355,-0.22339 -0.32426,-0.32908 -0.11948,-0.10501 -0.24379,-0.21256 -0.37169,-0.32124 -0.12783,-0.10876 -0.25158,-0.21977 -0.37229,-0.33386 -0.12016,-0.11354 -0.22757,-0.23598 -0.32304,-0.36688 -0.0967,-0.13089 -0.17354,-0.27142 -0.23058,-0.42033 -0.0582,-0.14894 -0.0876,-0.31285 -0.0876,-0.49178 0,-0.18916 0.0408,-0.35848 0.12069,-0.5092 0.0798,-0.15013 0.18554,-0.27742 0.31704,-0.38129 0.13022,-0.10388 0.28221,-0.18375 0.45095,-0.24019 0.16987,-0.0558 0.34467,-0.0841 0.5278,-0.0841 0.13515,0 0.26002,0.0102 0.3777,0.0294 0.11592,0.0192 0.22219,0.042 0.31645,0.0697 0.0943,0.0264 0.17714,0.054 0.24681,0.081 0.0702,0.0276 0.1285,0.0486 0.17353,0.0656 z"
       style="fill:#62972b;fill-opacity:1;fill-rule:nonzero;stroke:none;stroke-width:0.60046875"
       id="path102"
       inkscape:connector-curvature="0" />
    <path
       d="m 119.62892,294.85658 h 0.29302 c 0.13396,0 0.27743,-0.001 0.42993,-0.001 0.15184,-10e-4 0.30444,-10e-4 0.45816,-10e-4 0.15319,0 0.30205,-10e-4 0.44676,-0.003 0.14298,-0.001 0.2738,-0.001 0.38789,-0.001 l -0.99316,-2.12209 z m 2.18929,0.37469 h -0.32544 -0.42394 -0.47556 c -0.16272,0 -0.31706,5.8e-4 -0.46476,0.003 -0.14707,0.001 -0.28164,0.003 -0.40293,0.006 -0.12187,10e-4 -0.21617,10e-4 -0.28461,10e-4 l -0.17654,0.3741 c -0.0775,0.15318 -0.1435,0.28703 -0.19696,0.40112 -0.0547,0.11353 -0.10024,0.21256 -0.13395,0.29962 -0.0362,0.0865 -0.0618,0.16034 -0.0769,0.22339 -0.0171,0.0625 -0.0247,0.12067 -0.0247,0.17593 0,0.0342 0.001,0.0606 0.005,0.0781 0.003,0.0174 0.008,0.0311 0.0136,0.0409 v 0.0198 h -0.84426 v -0.0198 c 0.0216,-0.0222 0.0565,-0.0708 0.10501,-0.14588 0.0475,-0.0757 0.1033,-0.16697 0.16578,-0.27621 0.063,-0.10876 0.12919,-0.23178 0.20118,-0.36929 0.0732,-0.13754 0.14297,-0.28043 0.21255,-0.42755 l 1.95994,-4.04235 h 0.36027 l 1.9197,4.04235 c 0.0739,0.1532 0.14894,0.30085 0.22277,0.44137 0.0756,0.14059 0.14468,0.26659 0.20897,0.37648 0.0642,0.11172 0.11949,0.20176 0.16817,0.2738 0.0492,0.0721 0.0793,0.11473 0.0955,0.12732 v 0.0198 h -1.22916 c 0.007,-0.0264 0.0119,-0.0499 0.0119,-0.0703 v -0.0684 c 0,-0.0702 -0.0153,-0.15608 -0.0463,-0.25519 -0.0311,-0.0991 -0.0673,-0.20055 -0.11046,-0.30563 -0.0438,-0.10387 -0.0876,-0.20296 -0.13447,-0.29844 -0.0468,-0.0967 -0.0834,-0.17713 -0.11285,-0.24077 z"
       style="fill:#62972b;fill-opacity:1;fill-rule:nonzero;stroke:none;stroke-width:0.60046875"
       id="path106"
       inkscape:connector-curvature="0" />
    <path
       d="m 126.54511,292.69692 h -0.0955 c -0.0198,-0.0547 -0.0503,-0.12256 -0.0931,-0.20655 -0.0432,-0.0822 -0.10024,-0.16392 -0.17353,-0.24439 -0.0715,-0.0805 -0.16085,-0.14894 -0.26541,-0.20417 -0.10626,-0.0571 -0.23297,-0.0834 -0.3801,-0.0834 -0.11172,0 -0.21197,0.0174 -0.29902,0.0541 -0.0889,0.0373 -0.16273,0.0876 -0.22459,0.15183 -0.0606,0.0642 -0.10762,0.14042 -0.13871,0.22758 -0.0318,0.0889 -0.0475,0.18313 -0.0475,0.28642 0,0.1663 0.0499,0.32485 0.15064,0.47438 0.10024,0.15132 0.22576,0.29962 0.37648,0.44855 0.15065,0.14943 0.31466,0.29902 0.48939,0.44974 0.17595,0.14945 0.33926,0.30685 0.48939,0.47017 0.15064,0.16341 0.27622,0.33566 0.37768,0.51821 0.10092,0.18195 0.15064,0.37769 0.15064,0.58485 0,0.15489 -0.0283,0.31285 -0.0834,0.47678 -0.0558,0.16153 -0.14587,0.31043 -0.2708,0.44073 -0.12545,0.13158 -0.28643,0.23959 -0.48037,0.32366 -0.19576,0.0852 -0.43234,0.12732 -0.71036,0.12732 -0.1549,0 -0.29962,-0.0119 -0.43955,-0.0385 -0.13804,-0.0252 -0.26721,-0.0558 -0.38369,-0.0931 -0.11642,-0.0373 -0.22217,-0.0769 -0.31225,-0.12018 -0.0913,-0.0432 -0.16749,-0.0834 -0.22757,-0.12256 l 0.0852,-0.90669 h 0.10149 c 0.0318,0.11171 0.0786,0.22396 0.14162,0.33566 0.0625,0.11228 0.1394,0.21377 0.22997,0.30444 0.0913,0.0919 0.19816,0.16511 0.32186,0.22097 0.12254,0.0551 0.26481,0.0846 0.42513,0.0846 0.11161,0 0.21677,-0.0198 0.31645,-0.0554 0.0991,-0.0373 0.18495,-0.09 0.2564,-0.15608 0.0715,-0.068 0.12919,-0.14945 0.17054,-0.24799 0.0414,-0.0972 0.0625,-0.20717 0.0625,-0.32906 0,-0.14349 -0.0283,-0.27741 -0.0865,-0.40051 -0.0577,-0.12255 -0.13447,-0.24139 -0.22999,-0.35487 -0.096,-0.11404 -0.20356,-0.22339 -0.32364,-0.32908 -0.12068,-0.10501 -0.24441,-0.21256 -0.3729,-0.32124 -0.12732,-0.10876 -0.25099,-0.21977 -0.3717,-0.33386 -0.12067,-0.11354 -0.22757,-0.23598 -0.32425,-0.36688 -0.096,-0.13089 -0.17172,-0.27142 -0.22938,-0.42033 -0.0582,-0.14894 -0.0876,-0.31285 -0.0876,-0.49178 0,-0.18916 0.0401,-0.35848 0.12068,-0.5092 0.0798,-0.15013 0.18496,-0.27742 0.31645,-0.38129 0.13089,-0.10388 0.28101,-0.18375 0.45095,-0.24019 0.16936,-0.0558 0.34646,-0.0841 0.52901,-0.0841 0.13396,0 0.25941,0.0102 0.37589,0.0294 0.1171,0.0192 0.22338,0.042 0.31645,0.0697 0.0955,0.0264 0.17714,0.054 0.24739,0.081 0.0708,0.0276 0.12783,0.0486 0.17234,0.0656 z"
       style="fill:#62972b;fill-opacity:1;fill-rule:nonzero;stroke:none;stroke-width:0.60046875"
       id="path110"
       inkscape:connector-curvature="0" />
    <path
       d="m 133.15056,292.69692 h -0.096 c -0.0198,-0.0547 -0.051,-0.12256 -0.0936,-0.20655 -0.0427,-0.0822 -0.0998,-0.16392 -0.17293,-0.24439 -0.0715,-0.0805 -0.15967,-0.14894 -0.26661,-0.20417 -0.10456,-0.0571 -0.23179,-0.0834 -0.37889,-0.0834 -0.11161,0 -0.21198,0.0174 -0.29964,0.0541 -0.0883,0.0373 -0.16221,0.0876 -0.22338,0.15183 -0.0613,0.0642 -0.10763,0.14042 -0.13924,0.22758 -0.0311,0.0889 -0.0479,0.18313 -0.0479,0.28642 0,0.1663 0.0499,0.32485 0.15132,0.47438 0.10092,0.15132 0.22637,0.29962 0.3765,0.44855 0.15065,0.14943 0.31405,0.29902 0.48998,0.44974 0.17595,0.14945 0.33867,0.30685 0.48939,0.47017 0.15013,0.16341 0.2762,0.33566 0.37648,0.51821 0.10149,0.18195 0.15184,0.37769 0.15184,0.58485 0,0.15489 -0.0283,0.31285 -0.0846,0.47678 -0.0553,0.16153 -0.14655,0.31043 -0.27021,0.44073 -0.12544,0.13158 -0.28522,0.23959 -0.48098,0.32366 -0.19454,0.0852 -0.43172,0.12732 -0.71034,0.12732 -0.1532,0 -0.29964,-0.0119 -0.43956,-0.0385 -0.13923,-0.0252 -0.2666,-0.0558 -0.38429,-0.0931 -0.11523,-0.0373 -0.21977,-0.0769 -0.31044,-0.12018 -0.0913,-0.0432 -0.16818,-0.0834 -0.22878,-0.12256 l 0.0872,-0.90669 h 0.10092 c 0.0311,0.11171 0.0787,0.22396 0.14111,0.33566 0.0618,0.11228 0.13872,0.21377 0.22999,0.30444 0.0919,0.0919 0.19935,0.16511 0.32244,0.22097 0.12256,0.0551 0.26361,0.0846 0.42334,0.0846 0.11286,0 0.21916,-0.0198 0.31704,-0.0554 0.10024,-0.0373 0.18614,-0.09 0.25821,-0.15608 0.0708,-0.068 0.12851,-0.14945 0.16936,-0.24799 0.042,-0.0972 0.0618,-0.20717 0.0618,-0.32906 0,-0.14349 -0.0283,-0.27741 -0.0852,-0.40051 -0.0589,-0.12255 -0.13446,-0.24139 -0.23058,-0.35487 -0.0967,-0.11404 -0.20416,-0.22339 -0.32425,-0.32908 -0.11949,-0.10501 -0.24321,-0.21256 -0.37229,-0.32124 -0.12732,-0.10876 -0.25221,-0.21977 -0.3717,-0.33386 -0.12016,-0.11354 -0.22757,-0.23598 -0.32425,-0.36688 -0.0955,-0.13089 -0.17233,-0.27142 -0.22937,-0.42033 -0.0577,-0.14894 -0.0865,-0.31285 -0.0865,-0.49178 0,-0.18916 0.0385,-0.35848 0.11949,-0.5092 0.0798,-0.15013 0.18434,-0.27742 0.31644,-0.38129 0.13089,-0.10388 0.28164,-0.18375 0.45216,-0.24019 0.16817,-0.0558 0.34526,-0.0841 0.52661,-0.0841 0.13515,0 0.2606,0.0102 0.37829,0.0294 0.11592,0.0192 0.22218,0.042 0.31644,0.0697 0.0943,0.0264 0.17595,0.054 0.24679,0.081 0.0715,0.0276 0.12732,0.0486 0.17235,0.0656 z"
       style="fill:#62972b;fill-opacity:1;fill-rule:nonzero;stroke:none;stroke-width:0.60046875"
       id="path114"
       inkscape:connector-curvature="0" />
    <path
       d="m 135.44483,294.34876 c 0.0643,0.008 0.12919,0.017 0.19455,0.0216 0.0667,0.003 0.12851,0.007 0.18856,0.007 0.4011,0 0.70373,-0.10763 0.9109,-0.32245 0.20537,-0.21437 0.30924,-0.53562 0.30924,-0.96435 0,-0.35248 -0.0822,-0.6311 -0.24799,-0.83586 -0.1646,-0.20475 -0.40652,-0.30622 -0.72536,-0.30622 -0.10331,0 -0.19275,0.003 -0.27261,0.0119 -0.0781,0.007 -0.14536,0.017 -0.19876,0.0259 -0.0613,0.0136 -0.11353,0.0264 -0.15846,0.0384 z m 0.73497,0.31163 c -0.0642,0.0102 -0.12851,0.0154 -0.18914,0.0171 -0.063,0.001 -0.12732,0.003 -0.19035,0.003 -0.0523,0 -0.10762,-0.001 -0.16867,-0.005 -0.0601,-0.003 -0.12256,-0.008 -0.18676,-0.0153 v 0.23539 c 0,0.28403 0.003,0.53322 0.0102,0.74578 0.007,0.21377 0.0153,0.39632 0.0264,0.55004 0.0102,0.15319 0.0247,0.28221 0.0409,0.38609 0.0153,0.10455 0.0349,0.18976 0.0577,0.257 v 0.0198 h -1.10845 v -0.0198 c 0.0222,-0.0673 0.0421,-0.1537 0.0594,-0.25999 0.0174,-0.10501 0.0318,-0.23598 0.0437,-0.3897 0.0102,-0.15609 0.0205,-0.33988 0.0264,-0.55485 0.007,-0.21556 0.0102,-0.46597 0.0102,-0.75418 v -1.20934 c 0,-0.28762 -0.003,-0.53863 -0.0102,-0.7512 -0.007,-0.21255 -0.0171,-0.39689 -0.0264,-0.55303 -0.0119,-0.1537 -0.0264,-0.28461 -0.0437,-0.3897 -0.0174,-0.10627 -0.0373,-0.19275 -0.0594,-0.26 v -0.0192 c 0.0504,0.003 0.10501,0.007 0.16272,0.0102 0.0475,0.003 0.10217,0.006 0.16034,0.007 0.0606,0.002 0.12017,0.003 0.18013,0.003 0.10263,0 0.2552,-0.0102 0.45756,-0.0283 0.19995,-0.0192 0.43653,-0.0294 0.70915,-0.0294 0.27502,0 0.52541,0.0337 0.75119,0.10149 0.22578,0.066 0.41912,0.16272 0.58065,0.28762 0.16154,0.12493 0.28702,0.27741 0.37469,0.45576 0.0883,0.18073 0.1309,0.38008 0.1309,0.60045 0,0.17234 -0.0228,0.32968 -0.0708,0.47318 -0.048,0.14179 -0.11472,0.26902 -0.20116,0.38311 -0.0865,0.11404 -0.18975,0.21436 -0.30743,0.30083 -0.11898,0.0852 -0.2504,0.16085 -0.39332,0.22577 l 1.0022,1.41531 c 0.0869,0.11472 0.17534,0.22576 0.2618,0.33085 0.0889,0.10626 0.17233,0.20057 0.25219,0.28343 0.0798,0.0834 0.15557,0.15319 0.22578,0.20897 0.0708,0.0565 0.13021,0.0943 0.17774,0.11285 v 0.0198 h -1.25799 c 0,-0.0294 -0.0192,-0.0798 -0.0594,-0.15064 -0.0408,-0.0732 -0.0872,-0.14825 -0.1394,-0.22698 -0.0527,-0.0781 -0.10569,-0.15438 -0.15847,-0.22758 -0.0523,-0.0744 -0.0919,-0.12783 -0.11761,-0.1634 z"
       style="fill:#62972b;fill-opacity:1;fill-rule:nonzero;stroke:none;stroke-width:0.60046875"
       id="path118"
       inkscape:connector-curvature="0" />
    <path
       d="m 140.34976,296.47976 c 0.29904,0 0.57226,-0.0119 0.82446,-0.0361 0.251,-0.0247 0.47075,-0.051 0.65932,-0.0798 0.22155,-0.0353 0.42153,-0.0746 0.60045,-0.11949 l -0.1099,0.6377 c -0.0451,-0.002 -0.12187,-0.007 -0.22877,-0.0119 -0.10694,-0.005 -0.21977,-0.007 -0.33867,-0.0102 -0.11761,-10e-4 -0.22877,-0.003 -0.33144,-0.005 -0.10149,-10e-4 -0.17235,-10e-4 -0.21079,-10e-4 h -1.83861 v -0.0198 c 0.0222,-0.0672 0.0432,-0.1537 0.0606,-0.25999 0.0174,-0.10501 0.0318,-0.23539 0.0427,-0.3897 0.0119,-0.15609 0.0205,-0.33987 0.0259,-0.55483 0.007,-0.21497 0.0102,-0.46537 0.0102,-0.7542 v -1.20933 c 0,-0.28763 -0.003,-0.53863 -0.0102,-0.75121 -0.005,-0.21255 -0.0136,-0.39689 -0.0259,-0.55242 -0.0102,-0.15438 -0.0252,-0.28522 -0.0427,-0.3903 -0.0174,-0.10626 -0.0384,-0.19275 -0.0606,-0.2594 v -0.0198 h 1.10965 v 0.0198 c -0.0228,0.0667 -0.042,0.15318 -0.0589,0.2594 -0.0153,0.10501 -0.0294,0.23598 -0.0397,0.3903 -0.0119,0.15557 -0.0198,0.33987 -0.0264,0.55242 -0.007,0.21258 -0.0102,0.46358 -0.0102,0.75121 z"
       style="fill:#62972b;fill-opacity:1;fill-rule:nonzero;stroke:none;stroke-width:0.60046875"
       id="path122"
       inkscape:connector-curvature="0" />
  </g>
</svg>
